<?xml version="1.0" encoding="utf-8"?>
<!-- Generator: Adobe Illustrator 19.1.0, SVG Export Plug-In . SVG Version: 6.00 Build 0)  -->
<svg version="1.1" id="Artwork" xmlns="http://www.w3.org/2000/svg" xmlns:xlink="http://www.w3.org/1999/xlink" x="0px" y="0px"
	 viewBox="0 0 544.7 109.7" style="enable-background:new 0 0 544.7 109.7;" xml:space="preserve">
<style type="text/css">
	.st0{fill:#322666;}
	.st1{fill:none;}
	.st2{fill:#981E20;}
	.st3{fill:#FFFFFF;}
</style>
<g>
	<g>
		<g>
			<rect x="129.5" y="28.6" class="st0" width="15.1" height="41.8"/>
			<polygon class="st0" points="179.8,38.6 179.8,28.6 148.6,28.6 148.6,70.4 179.8,70.4 179.8,60.4 163.7,60.4 163.7,54.5 
				178.7,54.5 178.7,44.5 163.7,44.5 163.7,38.6 			"/>
			<rect x="510.4" y="28.6" class="st0" width="15.1" height="41.8"/>
			<polygon class="st0" points="366.3,38.6 366.3,28.6 335.2,28.6 335.2,38.6 335.2,60.4 335.2,70.4 366.3,70.4 366.3,60.4 
				350.3,60.4 350.3,54.5 365.3,54.5 365.3,44.5 350.3,44.5 350.3,38.6 			"/>
			<polygon class="st0" points="316.1,28.6 316.1,44.5 301.5,44.5 301.5,28.6 286.5,28.6 286.5,70.4 301.5,70.4 301.5,54.5 
				316.1,54.5 316.1,70.4 331.1,70.4 331.1,28.6 			"/>
			<polygon class="st0" points="215.6,28.6 215.6,48.4 196.1,28.6 183.9,28.6 183.9,70.4 199,70.4 199,51.7 217.6,70.4 230.7,70.4 
				230.7,28.6 			"/>
			<polygon class="st0" points="414.8,28.6 370.4,28.6 370.4,38.6 392.1,38.6 370.4,70.4 413.9,70.4 413.9,60.4 393.7,60.4 			"/>
			<path class="st0" d="M125.7,58.4c0-8.4-7.9-10.6-7.9-10.6c6.6-2.3,5.7-9.1,5.7-9.1c0-8-6.9-10-11-10H85.8v41.8h29.6
				C120.5,70.4,125.7,65.9,125.7,58.4z M101,36.6h4.8c0,0,4.5,0.2,4.5,4.7s-4.5,5.1-4.5,5.1H101V36.6z M106.1,63.5H101V53.1h5.1
				c0,0,4.8,0.2,4.8,5C110.9,62.9,106.1,63.5,106.1,63.5z"/>
			<path class="st0" d="M458.1,45.2V33c0,0-5-4.4-13.1-4.4c0,0-15,0-15,11.9c0,6,0.8,8.2,8.3,13c2.8,1.8,6.3,2.9,6.4,4.5
				c0.1,1.6-1.5,3.1-4.7,2.4c-3.3-0.7-6.7-2.5-9.4-4.2v12.3c0,0,17.2,5.3,24,0c5.6-4.3,6-10.8,4.3-14.7c-1.7-3.9-3.5-5.1-8-7.4
				c0,0-8.1-3-6-6.2c1.2-1.9,5.2-0.2,6.8,0.6C451.5,40.8,454.7,42.6,458.1,45.2z"/>
			<path class="st0" d="M484.4,28c-15.3,0-22.4,9.6-22.4,21.5c0,11.9,7,21.5,22.4,21.5s22.4-9.6,22.4-21.5
				C506.8,37.6,499.7,28,484.4,28z M484.4,58.1c-4.2,0-7.6-3.8-7.6-8.5s3.4-8.5,7.6-8.5c4.2,0,7.6,3.8,7.6,8.5
				S488.6,58.1,484.4,58.1z"/>
			<path class="st0" d="M267.2,27.9c-15.3,0-22.4,9.6-22.4,21.5l0,0c0,0,0,0,0,0c0,0,0,0,0,0l0,0c0,11.9,7,21.5,22.4,21.5
				c8.9,0,15.7-3,15.7-3V55.9v-0.4c-9.4,4-12.9,3.7-15.9,2.9c-3-0.8-7.3-4.2-7.4-8.9c0-4.7,4.4-8.1,7.4-8.9c3-0.8,6.4-1.1,15.9,2.9
				v-0.4V31C282.8,31,276,27.9,267.2,27.9z"/>
		</g>
		<g>
			<path class="st0" d="M535,65h-1.9v-0.7h4.5V65h-1.9v5.4H535V65z"/>
			<path class="st0" d="M543.6,67.7c0-0.9-0.1-1.9-0.1-2.6h0c-0.2,0.7-0.5,1.5-0.8,2.3l-1.1,3h-0.6l-1-2.9c-0.3-0.9-0.5-1.6-0.7-2.4
				h0c0,0.8-0.1,1.8-0.1,2.7l-0.2,2.6h-0.8l0.4-6.1h1l1,3c0.3,0.8,0.5,1.4,0.6,2.1h0c0.2-0.6,0.4-1.3,0.6-2.1l1.1-3h1l0.4,6.1h-0.8
				L543.6,67.7z"/>
		</g>
	</g>
	<rect x="-76.8" y="-70.6" class="st1" width="698.2" height="250.9"/>
	<g>
		<path class="st1" d="M38.7,2.5c-0.5-0.5-2.1-2-4.3-2c-1,0-2.6,0.4-4.1,2l-12,13.4c-0.5,0.6-1.9,1.7-3.3,1.7h-4
			c-1.5,0-2.7,1.2-2.7,2.7v5.7c0,0.1,0,2-1.6,3.6l-5.2,4.7c-0.8,0.8-1.1,2-0.7,3c0.4,1,1.4,1.8,2.6,1.8H7c0.3,0,0.5,0.2,0.5,0.5
			c0,0,0,0,0,21.8c0,4.2,2.3,8.5,7.5,8.6h3.2c0.7,0,1.4-0.3,1.9-0.8c0.5-0.5,0.8-1.2,0.8-1.9l-0.1-26.4c0-0.1,0.1-0.3,0.1-0.4
			c0.1-0.1,0.2-0.1,0.4-0.1H32c0.3,0,0.5,0.2,0.5,0.5v26.4c0,1.5,1.2,2.7,2.7,2.7H64l0.1,0c2.1-0.1,5.8-1.8,5.8-7.5l0-20.2
			c0,0,0-0.5,0.3-1c0.4-0.6,1.1-1,2.1-1h1.2c1.1,0,2.2-0.7,2.6-1.8c0.4-1,0.1-2.3-0.7-3L38.7,2.5z M74.5,38.1
			c-0.2,0.4-0.6,0.7-1,0.7h-1.2c-2.1,0-3,1-3.5,1.8c-0.5,0.9-0.5,1.8-0.5,1.8v20.2c0,5.5-3.7,5.9-4.2,5.9c0,0,0,0,0,0H35.2
			c-0.6,0-1.1-0.5-1.1-1.1c0,0,0-25.8,0-27.1c0-1.4-1.5-1.4-1.5-1.4H20.6c0,0-1.4,0.1-1.4,1.4l0.1,27.1c0,0.3-0.1,0.6-0.3,0.8
			c-0.2,0.2-0.5,0.3-0.8,0.3H15c-2.7-0.1-5.8-1.9-5.8-6.9V39.8c0-2-1.2-2.2-1.4-2.3l-0.1,0H3.2c-0.4,0-0.8-0.3-1-0.7
			c-0.2-0.4,0-0.9,0.3-1.2l5.3-4.8c2.1-2.1,2.2-4.6,2.2-4.8v-5.7c0-0.6,0.5-1.1,1.1-1.1h4c2.6,0,4.5-2.2,4.6-2.3l12-13.4
			c0.9-1,1.9-1.5,2.9-1.5c1.7,0,3.1,1.4,3.1,1.5l36.7,33.3C74.6,37.2,74.7,37.7,74.5,38.1z"/>
		<path class="st0" d="M75.7,35.3L39,2.1C38.5,1.6,36.8,0,34.4,0c-1.1,0-2.8,0.4-4.5,2.2l-12,13.4c-0.4,0.4-1.6,1.5-3,1.5h-4
			c-1.8,0-3.2,1.5-3.2,3.2v5.7c0,0.1,0,1.8-1.5,3.3l-5.2,4.7c-1,0.9-1.3,2.3-0.8,3.6c0.5,1.2,1.7,2.1,3,2.1H7c0,0,0,21.8,0,21.8
			c0,6.2,4,9,7.9,9.1h3.2c0.9,0,1.7-0.3,2.3-1c0.6-0.6,0.9-1.4,0.9-2.3l-0.1-26.4H32v26.4c0,1.8,1.5,3.2,3.2,3.2H64c0,0,0.1,0,0.1,0
			c2.3-0.1,6.2-1.9,6.2-8l0-20.2c0,0,0-0.4,0.2-0.7c0.2-0.3,0.5-0.7,1.7-0.7h1.2c1.3,0,2.5-0.8,3-2.1C77,37.6,76.7,36.2,75.7,35.3z
			 M76.1,38.7c-0.4,1-1.4,1.8-2.6,1.8h-1.2c-1,0-1.7,0.3-2.1,1c-0.3,0.5-0.3,1-0.3,1l0,20.2c0,5.8-3.6,7.4-5.8,7.5l-0.1,0H35.2
			c-1.5,0-2.7-1.2-2.7-2.7V40.9c0-0.3-0.2-0.5-0.5-0.5H21.3c-0.1,0-0.3,0.1-0.4,0.1c-0.1,0.1-0.1,0.2-0.1,0.4l0.1,26.4
			c0,0.7-0.3,1.4-0.8,1.9c-0.5,0.5-1.2,0.8-1.9,0.8H15c-5.1-0.1-7.5-4.4-7.5-8.6c0-21.8,0-21.8,0-21.8c0-0.3-0.2-0.5-0.5-0.5H3.2
			c-1.1,0-2.2-0.7-2.6-1.8c-0.4-1-0.1-2.3,0.7-3l5.2-4.7c1.6-1.6,1.6-3.6,1.6-3.6v-5.7c0-1.5,1.2-2.7,2.7-2.7h4
			c1.5,0,2.8-1.1,3.3-1.7l12-13.4c1.5-1.7,3.1-2,4.1-2c2.2,0,3.8,1.5,4.3,2l36.7,33.2C76.2,36.4,76.5,37.6,76.1,38.7z"/>
		<path class="st2" d="M37.5,3.6c-0.1-0.1-1.4-1.5-3.1-1.5c-1,0-2,0.5-2.9,1.5L19.5,17c-0.1,0.1-2,2.3-4.6,2.3h-4
			c-0.6,0-1.1,0.5-1.1,1.1v5.7c0,0.3-0.1,2.8-2.2,4.8l-5.3,4.8c-0.3,0.3-0.4,0.8-0.3,1.2c0.2,0.4,0.6,0.7,1,0.7h4.5l0.1,0
			c0.1,0,1.4,0.3,1.4,2.3v21.7c0,5,3.1,6.9,5.8,6.9h3.2c0.3,0,0.6-0.1,0.8-0.3c0.2-0.2,0.3-0.5,0.3-0.8l-0.1-27.1
			c0-1.4,1.4-1.4,1.4-1.4h12.1c0,0,1.5,0.1,1.5,1.4c0,1.4,0,27.1,0,27.1c0,0.6,0.5,1.1,1.1,1.1H64c0,0,0,0,0,0
			c0.4,0,4.2-0.3,4.2-5.9V42.4c0,0,0-0.9,0.5-1.8c0.5-0.8,1.5-1.8,3.5-1.8h1.2c0.4,0,0.8-0.3,1-0.7c0.2-0.4,0-0.9-0.3-1.2L37.5,3.6z
			 M58,50.2c0,0.8-0.6,1.4-1.4,1.4H40.3c-0.8,0-1.4-0.6-1.4-1.4v-10c0-0.8,0.6-1.4,1.4-1.4h16.3c0.8,0,1.4,0.6,1.4,1.4V50.2z"/>
		<path class="st0" d="M55.9,40.4H41c-0.3,0-0.5,0.2-0.5,0.5v8.6c0,0.3,0.2,0.5,0.5,0.5h14.8c0.3,0,0.5-0.2,0.5-0.5v-8.6
			C56.4,40.7,56.1,40.4,55.9,40.4z M55.9,49.5H41v-8.6h14.8V49.5z"/>
	</g>
	<g>
		<path class="st0" d="M542.5,77.7H2.2c-1.2,0-2.2,1-2.2,2.2v27.7c0,1.2,1,2.2,2.2,2.2h540.3c1.2,0,2.2-1,2.2-2.2V79.9
			C544.7,78.7,543.7,77.7,542.5,77.7z"/>
		<g>
			<path class="st3" d="M196.8,99.3v-6.6l-4.9-9h2.3l2.2,4.3c0.6,1.2,1.1,2.1,1.5,3.2h0c0.4-1,1-2,1.6-3.2l2.2-4.3h2.3l-5.2,8.9v6.6
				H196.8z"/>
			<path class="st3" d="M214.3,93.6c0,4.1-2.9,5.9-5.6,5.9c-3,0-5.4-2.2-5.4-5.8c0-3.7,2.5-5.9,5.5-5.9
				C212.2,87.9,214.3,90.2,214.3,93.6z M205.5,93.8c0,2.5,1.4,4.3,3.4,4.3c1.9,0,3.4-1.8,3.4-4.3c0-1.9-0.9-4.3-3.4-4.3
				S205.5,91.6,205.5,93.8z"/>
			<path class="st3" d="M226.5,96.3c0,1.2,0,2.2,0.1,3.1h-1.8l-0.1-1.8h0c-0.5,0.9-1.7,2.1-3.7,2.1c-1.8,0-3.9-1-3.9-4.9v-6.5h2v6.2
				c0,2.1,0.6,3.6,2.5,3.6c1.4,0,2.3-0.9,2.7-1.8c0.1-0.3,0.2-0.7,0.2-1v-6.9h2V96.3z"/>
			<path class="st3" d="M230.1,91.6c0-1.3,0-2.5-0.1-3.5h1.8l0.1,2.2h0.1c0.5-1.5,1.7-2.5,3.1-2.5c0.2,0,0.4,0,0.6,0.1v1.9
				c-0.2,0-0.4-0.1-0.7-0.1c-1.4,0-2.5,1.1-2.7,2.6c0,0.3-0.1,0.6-0.1,0.9v6h-2V91.6z"/>
			<path class="st3" d="M245.5,84.9v3.2h2.9v1.5h-2.9v6c0,1.4,0.4,2.2,1.5,2.2c0.5,0,0.9-0.1,1.2-0.1l0.1,1.5
				c-0.4,0.2-1,0.3-1.8,0.3c-0.9,0-1.7-0.3-2.2-0.9c-0.6-0.6-0.8-1.6-0.8-2.9v-6.1h-1.7v-1.5h1.7v-2.7L245.5,84.9z"/>
			<path class="st3" d="M250.9,91.6c0-1.3,0-2.5-0.1-3.5h1.8l0.1,2.2h0.1c0.5-1.5,1.7-2.5,3.1-2.5c0.2,0,0.4,0,0.6,0.1v1.9
				c-0.2,0-0.4-0.1-0.7-0.1c-1.4,0-2.5,1.1-2.7,2.6c0,0.3-0.1,0.6-0.1,0.9v6h-2V91.6z"/>
			<path class="st3" d="M268.1,96.3c0,1.2,0,2.2,0.1,3.1h-1.8l-0.1-1.8h0c-0.5,0.9-1.7,2.1-3.7,2.1c-1.8,0-3.9-1-3.9-4.9v-6.5h2v6.2
				c0,2.1,0.6,3.6,2.5,3.6c1.4,0,2.3-0.9,2.7-1.8c0.1-0.3,0.2-0.7,0.2-1v-6.9h2V96.3z"/>
			<path class="st3" d="M271.4,97.3c0.6,0.4,1.7,0.8,2.7,0.8c1.5,0,2.2-0.7,2.2-1.7c0-1-0.6-1.5-2.1-2.1c-2-0.7-3-1.8-3-3.2
				c0-1.8,1.5-3.3,3.9-3.3c1.1,0,2.1,0.3,2.8,0.7l-0.5,1.5c-0.4-0.3-1.2-0.6-2.3-0.6c-1.2,0-1.9,0.7-1.9,1.5c0,0.9,0.7,1.3,2.1,1.9
				c1.9,0.7,2.9,1.7,2.9,3.4c0,2-1.5,3.4-4.2,3.4c-1.2,0-2.4-0.3-3.1-0.8L271.4,97.3z"/>
			<path class="st3" d="M283.5,84.9v3.2h2.9v1.5h-2.9v6c0,1.4,0.4,2.2,1.5,2.2c0.5,0,0.9-0.1,1.2-0.1l0.1,1.5
				c-0.4,0.2-1,0.3-1.8,0.3c-0.9,0-1.7-0.3-2.2-0.9c-0.6-0.6-0.8-1.6-0.8-2.9v-6.1h-1.7v-1.5h1.7v-2.7L283.5,84.9z"/>
			<path class="st3" d="M289.9,94.1c0,2.8,1.8,3.9,3.8,3.9c1.5,0,2.3-0.3,3.1-0.6l0.3,1.5c-0.7,0.3-1.9,0.7-3.7,0.7
				c-3.4,0-5.5-2.3-5.5-5.6c0-3.4,2-6,5.2-6c3.7,0,4.6,3.2,4.6,5.3c0,0.4,0,0.7-0.1,0.9H289.9z M295.9,92.7c0-1.3-0.5-3.3-2.8-3.3
				c-2.1,0-3,1.9-3.1,3.3H295.9z"/>
			<path class="st3" d="M310.3,82.9v13.5c0,1,0,2.1,0.1,2.9h-1.8l-0.1-1.9h0c-0.6,1.2-2,2.2-3.8,2.2c-2.7,0-4.8-2.3-4.8-5.7
				c0-3.7,2.3-6,5-6c1.7,0,2.9,0.8,3.4,1.7h0v-6.7H310.3z M308.2,92.7c0-0.3,0-0.6-0.1-0.9c-0.3-1.3-1.4-2.4-2.9-2.4
				c-2.1,0-3.4,1.8-3.4,4.3c0,2.3,1.1,4.1,3.3,4.1c1.4,0,2.6-0.9,3-2.4c0.1-0.3,0.1-0.6,0.1-0.9V92.7z"/>
			<path class="st3" d="M319,82.9h2v7h0c0.3-0.6,0.8-1.1,1.5-1.4c0.6-0.3,1.3-0.6,2.1-0.6c1.5,0,3.9,0.9,3.9,4.8v6.7h-2v-6.4
				c0-1.8-0.7-3.3-2.6-3.3c-1.3,0-2.4,0.9-2.7,2c-0.1,0.3-0.1,0.6-0.1,1v6.8h-2V82.9z"/>
			<path class="st3" d="M342.2,93.6c0,4.1-2.9,5.9-5.6,5.9c-3,0-5.4-2.2-5.4-5.8c0-3.7,2.5-5.9,5.5-5.9
				C340,87.9,342.2,90.2,342.2,93.6z M333.3,93.8c0,2.5,1.4,4.3,3.4,4.3c1.9,0,3.4-1.8,3.4-4.3c0-1.9-0.9-4.3-3.4-4.3
				C334.4,89.4,333.3,91.6,333.3,93.8z"/>
			<path class="st3" d="M345,91.2c0-1.2,0-2.1-0.1-3h1.8l0.1,1.8h0.1c0.6-1.1,1.7-2.1,3.5-2.1c1.5,0,2.7,0.9,3.2,2.2h0
				c0.3-0.6,0.8-1.1,1.2-1.5c0.7-0.5,1.4-0.8,2.5-0.8c1.5,0,3.7,1,3.7,4.9v6.6h-2V93c0-2.2-0.8-3.4-2.4-3.4c-1.2,0-2.1,0.9-2.4,1.8
				c-0.1,0.3-0.2,0.6-0.2,1v6.9h-2v-6.7c0-1.8-0.8-3.1-2.3-3.1c-1.3,0-2.2,1-2.5,2c-0.1,0.3-0.2,0.6-0.2,1v6.8h-2V91.2z"/>
			<path class="st3" d="M365.6,94.1c0,2.8,1.8,3.9,3.8,3.9c1.5,0,2.3-0.3,3.1-0.6l0.3,1.5c-0.7,0.3-1.9,0.7-3.7,0.7
				c-3.4,0-5.5-2.3-5.5-5.6c0-3.4,2-6,5.2-6c3.7,0,4.6,3.2,4.6,5.3c0,0.4,0,0.7-0.1,0.9H365.6z M371.6,92.7c0-1.3-0.5-3.3-2.8-3.3
				c-2.1,0-3,1.9-3.1,3.3H371.6z"/>
			<path class="st3" d="M389.4,98.9c-0.5,0.3-1.7,0.6-3.2,0.6c-3.4,0-5.6-2.3-5.6-5.7c0-3.4,2.4-5.9,6-5.9c1.2,0,2.3,0.3,2.8,0.6
				l-0.5,1.6c-0.5-0.3-1.2-0.5-2.4-0.5c-2.6,0-4,1.9-4,4.2c0,2.6,1.7,4.2,3.9,4.2c1.2,0,1.9-0.3,2.5-0.6L389.4,98.9z"/>
			<path class="st3" d="M398.2,99.3l-0.2-1.4H398c-0.6,0.9-1.8,1.7-3.4,1.7c-2.3,0-3.4-1.6-3.4-3.2c0-2.7,2.4-4.2,6.7-4.2V92
				c0-0.9-0.3-2.6-2.5-2.6c-1,0-2.1,0.3-2.9,0.8l-0.5-1.3c0.9-0.6,2.3-1,3.7-1c3.4,0,4.3,2.3,4.3,4.6v4.2c0,1,0,1.9,0.2,2.7H398.2z
				 M397.9,93.6c-2.2,0-4.7,0.3-4.7,2.5c0,1.3,0.9,1.9,1.9,1.9c1.5,0,2.4-0.9,2.7-1.9c0.1-0.2,0.1-0.4,0.1-0.6V93.6z"/>
			<path class="st3" d="M403.4,91.6c0-1.3,0-2.5-0.1-3.5h1.8l0.1,2.2h0.1c0.5-1.5,1.7-2.5,3.1-2.5c0.2,0,0.4,0,0.6,0.1v1.9
				c-0.2,0-0.4-0.1-0.7-0.1c-1.4,0-2.5,1.1-2.7,2.6c0,0.3-0.1,0.6-0.1,0.9v6h-2V91.6z"/>
			<path class="st3" d="M412.1,94.1c0,2.8,1.8,3.9,3.8,3.9c1.5,0,2.3-0.3,3.1-0.6l0.3,1.5c-0.7,0.3-1.9,0.7-3.7,0.7
				c-3.4,0-5.5-2.3-5.5-5.6c0-3.4,2-6,5.2-6c3.7,0,4.6,3.2,4.6,5.3c0,0.4,0,0.7-0.1,0.9H412.1z M418.1,92.7c0-1.3-0.5-3.3-2.8-3.3
				c-2.1,0-3,1.9-3.1,3.3H418.1z"/>
			<path class="st3" d="M427.6,97.3c0.6,0.4,1.7,0.8,2.7,0.8c1.5,0,2.2-0.7,2.2-1.7c0-1-0.6-1.5-2.1-2.1c-2-0.7-3-1.8-3-3.2
				c0-1.8,1.5-3.3,3.9-3.3c1.1,0,2.1,0.3,2.8,0.7l-0.5,1.5c-0.4-0.3-1.2-0.6-2.3-0.6c-1.2,0-1.9,0.7-1.9,1.5c0,0.9,0.7,1.3,2.1,1.9
				c1.9,0.7,2.9,1.7,2.9,3.4c0,2-1.5,3.4-4.2,3.4c-1.2,0-2.4-0.3-3.1-0.8L427.6,97.3z"/>
			<path class="st3" d="M437.3,91.8c0-1.4,0-2.6-0.1-3.7h1.8l0.1,1.9h0c0.8-1.4,2.2-2.2,4-2.2c2.7,0,4.7,2.3,4.7,5.7
				c0,4-2.5,6-5.1,6c-1.5,0-2.8-0.6-3.4-1.8h0v6.1h-2V91.8z M439.3,94.8c0,0.3,0,0.6,0.1,0.8c0.4,1.4,1.6,2.4,3.1,2.4
				c2.1,0,3.4-1.8,3.4-4.3c0-2.2-1.2-4.2-3.3-4.2c-1.4,0-2.7,1-3.1,2.5c-0.1,0.3-0.1,0.6-0.1,0.8V94.8z"/>
			<path class="st3" d="M451.8,94.1c0,2.8,1.8,3.9,3.8,3.9c1.5,0,2.3-0.3,3.1-0.6l0.3,1.5c-0.7,0.3-1.9,0.7-3.7,0.7
				c-3.4,0-5.5-2.3-5.5-5.6c0-3.4,2-6,5.2-6c3.7,0,4.6,3.2,4.6,5.3c0,0.4,0,0.7-0.1,0.9H451.8z M457.8,92.7c0-1.3-0.5-3.3-2.8-3.3
				c-2.1,0-3,1.9-3.1,3.3H457.8z"/>
			<path class="st3" d="M470.5,98.9c-0.5,0.3-1.7,0.6-3.2,0.6c-3.4,0-5.6-2.3-5.6-5.7c0-3.4,2.4-5.9,6-5.9c1.2,0,2.3,0.3,2.8,0.6
				l-0.5,1.6c-0.5-0.3-1.2-0.5-2.4-0.5c-2.6,0-4,1.9-4,4.2c0,2.6,1.7,4.2,3.9,4.2c1.2,0,1.9-0.3,2.5-0.6L470.5,98.9z"/>
			<path class="st3" d="M475.4,85c0,0.7-0.5,1.2-1.3,1.2c-0.7,0-1.2-0.6-1.2-1.2c0-0.7,0.5-1.3,1.3-1.3
				C474.9,83.7,475.4,84.3,475.4,85z M473.1,99.3V88.1h2v11.2H473.1z"/>
			<path class="st3" d="M484.9,99.3l-0.2-1.4h-0.1c-0.6,0.9-1.8,1.7-3.4,1.7c-2.3,0-3.4-1.6-3.4-3.2c0-2.7,2.4-4.2,6.7-4.2V92
				c0-0.9-0.3-2.6-2.5-2.6c-1,0-2.1,0.3-2.9,0.8l-0.5-1.3c0.9-0.6,2.3-1,3.7-1c3.4,0,4.3,2.3,4.3,4.6v4.2c0,1,0,1.9,0.2,2.7H484.9z
				 M484.6,93.6c-2.2,0-4.7,0.3-4.7,2.5c0,1.3,0.9,1.9,1.9,1.9c1.5,0,2.4-0.9,2.7-1.9c0.1-0.2,0.1-0.4,0.1-0.6V93.6z"/>
			<path class="st3" d="M490.1,82.9h2v16.4h-2V82.9z"/>
			<path class="st3" d="M498.1,85c0,0.7-0.5,1.2-1.3,1.2c-0.7,0-1.2-0.6-1.2-1.2c0-0.7,0.5-1.3,1.3-1.3
				C497.6,83.7,498.1,84.3,498.1,85z M495.8,99.3V88.1h2v11.2H495.8z"/>
			<path class="st3" d="M501.2,97.3c0.6,0.4,1.7,0.8,2.7,0.8c1.5,0,2.2-0.7,2.2-1.7c0-1-0.6-1.5-2.1-2.1c-2-0.7-3-1.8-3-3.2
				c0-1.8,1.5-3.3,3.9-3.3c1.1,0,2.1,0.3,2.8,0.7l-0.5,1.5c-0.4-0.3-1.2-0.6-2.3-0.6c-1.2,0-1.9,0.7-1.9,1.5c0,0.9,0.7,1.3,2.1,1.9
				c1.9,0.7,2.9,1.7,2.9,3.4c0,2-1.5,3.4-4.2,3.4c-1.2,0-2.4-0.3-3.1-0.8L501.2,97.3z"/>
			<path class="st3" d="M513.3,84.9v3.2h2.9v1.5h-2.9v6c0,1.4,0.4,2.2,1.5,2.2c0.5,0,0.9-0.1,1.2-0.1l0.1,1.5
				c-0.4,0.2-1,0.3-1.8,0.3c-0.9,0-1.7-0.3-2.2-0.9c-0.6-0.6-0.8-1.6-0.8-2.9v-6.1h-1.7v-1.5h1.7v-2.7L513.3,84.9z"/>
			<path class="st3" d="M518.4,97.3c0.6,0.4,1.7,0.8,2.7,0.8c1.5,0,2.2-0.7,2.2-1.7c0-1-0.6-1.5-2.1-2.1c-2-0.7-3-1.8-3-3.2
				c0-1.8,1.5-3.3,3.9-3.3c1.1,0,2.1,0.3,2.8,0.7l-0.5,1.5c-0.4-0.3-1.2-0.6-2.3-0.6c-1.2,0-1.9,0.7-1.9,1.5c0,0.9,0.7,1.3,2.1,1.9
				c1.9,0.7,2.9,1.7,2.9,3.4c0,2-1.5,3.4-4.2,3.4c-1.2,0-2.4-0.3-3.1-0.8L518.4,97.3z"/>
		</g>
	</g>
</g>
</svg>
